<?xml version="1.0" standalone="no"?>
<!DOCTYPE svg PUBLIC "-//W3C//DTD SVG 20010904//EN"
 "http://www.w3.org/TR/2001/REC-SVG-20010904/DTD/svg10.dtd">
<svg version="1.0" xmlns="http://www.w3.org/2000/svg"
 width="5000.000000pt" height="3335.000000pt" viewBox="0 0 5000.000000 3335.000000"
 preserveAspectRatio="xMidYMid meet">

<g transform="translate(0.000000,3335.000000) scale(0.100000,-0.100000)"
fill="#000000" stroke="none">
<path d="M26992 32363 c-10 -4 -10 -8 -2 -18 11 -14 40 -10 40 5 0 11 -22 18
-38 13z"/>
<path d="M41536 31994 c-9 -24 -7 -34 8 -34 16 0 29 27 20 41 -8 14 -21 11
-28 -7z"/>
<path d="M40876 31714 c-25 -24 -21 -56 7 -52 17 2 23 11 25 36 4 35 -8 41
-32 16z"/>
<path d="M48700 30294 c0 -9 7 -14 17 -12 25 5 28 28 4 28 -12 0 -21 -6 -21
-16z"/>
<path d="M6680 30290 c0 -5 5 -10 10 -10 6 0 10 5 10 10 0 6 -4 10 -10 10 -5
0 -10 -4 -10 -10z"/>
<path d="M43222 30248 c6 -18 28 -21 28 -4 0 9 -7 16 -16 16 -9 0 -14 -5 -12
-12z"/>
<path d="M43795 29331 c-6 -11 9 -23 19 -14 9 9 7 23 -3 23 -6 0 -12 -4 -16
-9z"/>
<path d="M27956 28530 c-24 -29 -26 -60 -4 -60 6 0 27 9 48 21 34 19 36 23 26
45 -15 32 -39 30 -70 -6z"/>
<path d="M27685 28460 c-3 -5 -1 -10 4 -10 6 0 11 5 11 10 0 6 -2 10 -4 10 -3
0 -8 -4 -11 -10z"/>
<path d="M40978 28418 c9 -9 15 -9 24 0 9 9 7 12 -12 12 -19 0 -21 -3 -12 -12z"/>
<path d="M49445 28391 c-8 -15 3 -31 21 -31 9 0 14 7 12 17 -4 20 -24 28 -33
14z"/>
<path d="M45345 27501 c-3 -6 -3 -16 0 -21 11 -17 66 -42 81 -36 29 11 19 20
-68 64 -3 2 -9 -2 -13 -7z"/>
<path d="M44755 27190 c3 -5 13 -10 21 -10 8 0 12 5 9 10 -3 6 -13 10 -21 10
-8 0 -12 -4 -9 -10z"/>
<path d="M1930 26270 c-9 -6 -10 -10 -3 -10 6 0 15 5 18 10 8 12 4 12 -15 0z"/>
<path d="M1506 25251 c-10 -16 5 -41 25 -41 14 0 19 7 19 25 0 18 -5 25 -19
25 -11 0 -22 -4 -25 -9z"/>
<path d="M41120 25100 c0 -5 5 -10 11 -10 5 0 7 5 4 10 -3 6 -8 10 -11 10 -2
0 -4 -4 -4 -10z"/>
<path d="M41120 25051 c0 -6 4 -13 10 -16 6 -3 7 1 4 9 -7 18 -14 21 -14 7z"/>
<path d="M41121 24952 c-1 -7 -5 -11 -10 -8 -5 3 -11 -1 -15 -9 -3 -8 -17 -15
-31 -15 -16 0 -25 -6 -25 -15 0 -10 10 -15 30 -15 17 0 30 -4 30 -9 0 -12 -49
-20 -56 -10 -3 5 -11 9 -17 8 -9 0 -9 -2 1 -6 6 -2 12 -11 12 -19 0 -9 4 -13
8 -10 5 3 21 -1 36 -9 14 -8 24 -10 21 -5 -3 4 1 11 7 13 10 4 10 6 1 6 -7 1
-13 6 -13 12 0 5 5 7 10 4 6 -3 10 1 10 9 0 9 -4 16 -10 16 -16 0 -12 22 6 35
9 6 14 18 11 26 -4 10 -6 11 -6 1z m-27 -101 c4 -5 -3 -7 -14 -4 -23 6 -26 13
-6 13 8 0 17 -4 20 -9z"/>
<path d="M40933 24825 c-26 -25 -30 -40 -8 -31 20 7 47 -22 40 -44 -7 -23 11
-21 48 3 15 10 27 13 27 7 0 -6 4 -9 10 -5 5 3 7 12 4 20 -4 10 0 13 14 10 15
-3 18 1 14 21 -6 31 -12 30 -42 -6 -28 -34 -42 -37 -70 -13 -13 12 -18 24 -14
40 7 28 6 27 -23 -2z m134 -27 c-3 -8 -6 -5 -6 6 -1 11 2 17 5 13 3 -3 4 -12
1 -19z"/>
<path d="M40830 24750 c0 -5 7 -10 15 -10 8 0 15 -4 15 -10 0 -5 5 -10 10 -10
16 0 11 27 -6 34 -23 9 -34 7 -34 -4z"/>
<path d="M41075 24750 c-3 -6 1 -7 9 -4 18 7 21 14 7 14 -6 0 -13 -4 -16 -10z"/>
<path d="M40783 24715 c-22 -23 -21 -35 4 -35 7 0 13 6 13 14 0 8 6 16 13 19
8 3 9 8 2 15 -7 6 -17 2 -32 -13z"/>
<path d="M41077 24722 c-12 -13 -13 -21 -6 -32 9 -13 10 -12 5 2 -6 20 10 34
17 16 3 -7 4 -3 4 10 -1 26 0 26 -20 4z"/>
<path d="M40840 24691 c0 -23 -51 -35 -97 -22 -26 8 -35 6 -49 -10 -30 -33
-26 -56 9 -50 4 0 7 -4 7 -10 0 -5 4 -8 9 -4 5 3 12 1 15 -3 5 -8 21 -9 61 -3
6 1 3 5 -5 11 -9 6 -17 5 -22 -3 -5 -8 -8 -7 -8 4 0 9 7 20 16 23 8 3 12 2 9
-4 -8 -13 -2 -13 30 2 14 6 25 19 25 30 0 13 8 18 29 18 16 0 35 8 42 17 13
15 12 16 -9 11 -12 -4 -20 -2 -16 3 3 5 -6 9 -20 9 -19 0 -26 -5 -26 -19z
m-109 -63 c11 -11 16 -24 13 -27 -4 -3 -9 0 -11 7 -3 6 -9 10 -14 6 -5 -3 -9
0 -9 6 0 6 -4 8 -10 5 -6 -3 -7 1 -4 9 8 21 13 20 35 -6z"/>
<path d="M40222 24085 l3 -87 100 -42 c55 -24 123 -56 150 -71 146 -81 316
-214 422 -329 40 -44 64 -63 67 -55 2 8 10 63 16 124 6 60 17 114 23 118 8 6
4 7 -10 4 -16 -4 -40 11 -93 57 -167 143 -347 251 -530 319 -52 20 -108 39
-123 42 l-28 7 3 -87z"/>
<path d="M41315 24160 c-4 -6 -11 -8 -16 -4 -5 3 -9 2 -8 -3 1 -4 -1 -16 -6
-26 -10 -23 1 -33 19 -18 8 7 12 20 9 28 -4 11 -2 14 5 9 7 -4 12 -1 12 8 0
18 -6 21 -15 6z"/>
<path d="M41200 24019 c0 -5 5 -7 10 -4 6 3 10 8 10 11 0 2 -4 4 -10 4 -5 0
-10 -5 -10 -11z"/>
<path d="M40940 22815 c0 -8 5 -15 10 -15 6 0 10 7 10 15 0 8 -4 15 -10 15 -5
0 -10 -7 -10 -15z"/>
<path d="M44175 21771 c-3 -5 -1 -12 5 -16 12 -7 30 2 30 16 0 12 -27 12 -35
0z"/>
<path d="M4540 21514 c0 -6 8 -45 18 -85 l17 -74 3 47 c2 32 -3 59 -17 85 -11
21 -20 33 -21 27z"/>
<path d="M38825 21150 c-4 -6 -10 -8 -14 -6 -4 3 -8 -7 -9 -22 -1 -24 0 -25
12 -10 7 10 17 14 21 10 5 -4 5 -1 1 6 -4 6 -2 12 3 12 6 0 11 5 11 10 0 13
-17 13 -25 0z"/>
<path d="M38512 20772 c11 -13 10 -15 -3 -10 -9 4 -16 1 -16 -8 0 -7 6 -15 14
-18 7 -3 13 -1 13 5 0 6 6 7 13 3 6 -4 9 -3 4 1 -4 5 -1 16 7 24 13 15 12 16
-15 17 -26 2 -28 0 -17 -14z"/>
<path d="M48196 17203 c-11 -11 -6 -23 9 -23 8 0 15 4 15 9 0 13 -16 22 -24
14z"/>
<path d="M49712 17148 c-20 -20 -14 -40 11 -36 14 2 22 10 22 22 0 24 -16 31
-33 14z"/>
<path d="M48774 14227 c-8 -21 2 -35 16 -21 5 5 6 15 0 24 -8 12 -10 12 -16
-3z"/>
<path d="M48360 13910 c0 -23 26 -38 41 -23 14 14 0 43 -22 43 -12 0 -19 -7
-19 -20z"/>
<path d="M47955 11579 c-4 -6 -5 -12 -2 -15 2 -3 7 2 10 11 7 17 1 20 -8 4z"/>
<path d="M4285 11450 c3 -5 8 -10 11 -10 2 0 4 5 4 10 0 6 -5 10 -11 10 -5 0
-7 -4 -4 -10z"/>
<path d="M49485 10790 c3 -5 8 -10 11 -10 2 0 4 5 4 10 0 6 -5 10 -11 10 -5 0
-7 -4 -4 -10z"/>
<path d="M49030 8859 c0 -15 21 -53 34 -61 19 -13 56 -9 56 7 0 8 -12 26 -27
40 -28 25 -63 34 -63 14z"/>
<path d="M7421 7451 c-13 -24 8 -55 35 -50 13 3 20 14 22 37 3 28 0 32 -22 32
-14 0 -30 -8 -35 -19z"/>
<path d="M9775 6524 c0 -13 5 -24 12 -24 6 0 9 9 6 20 -8 30 -18 32 -18 4z"/>
<path d="M9770 6430 c3 -27 4 -48 1 -48 -34 3 -51 -4 -51 -23 0 -11 -5 -17
-10 -14 -6 3 -12 0 -15 -7 -3 -7 -6 -261 -7 -565 l-3 -551 35 -6 c19 -3 45 -6
58 -6 l22 0 0 569 c0 579 -4 686 -24 694 -9 4 -10 -9 -6 -43z"/>
<path d="M40570 6055 c-10 -13 -9 -15 9 -15 11 0 21 4 21 9 0 18 -18 21 -30 6z"/>
<path d="M40650 6032 c0 -5 7 -16 16 -23 14 -12 16 -11 13 5 -4 20 -29 35 -29
18z"/>
<path d="M40335 5880 c-3 -4 -2 -15 1 -24 4 -10 0 -18 -10 -22 -23 -9 -20 -31
6 -37 25 -7 51 20 42 43 -4 8 -7 20 -7 27 0 15 -24 25 -32 13z"/>
<path d="M40410 5861 c0 -10 8 -29 18 -41 17 -22 18 -22 36 -2 17 20 17 21 -3
41 -26 26 -51 27 -51 2z"/>
<path d="M40570 5790 c0 -5 5 -10 10 -10 6 0 10 5 10 10 0 6 -4 10 -10 10 -5
0 -10 -4 -10 -10z"/>
<path d="M40340 5751 c0 -6 4 -13 10 -16 6 -3 7 1 4 9 -7 18 -14 21 -14 7z"/>
<path d="M38573 4283 l-882 -3 -4 -23 -4 -22 -2 23 c-1 18 -7 22 -32 22 -20 0
-29 -4 -27 -12 10 -30 56 -37 245 -39 l192 -1 -9 -23 c-5 -13 -6 -26 -3 -29 3
-3 -4 -4 -15 -1 -19 3 -20 1 -11 -21 12 -34 12 -34 -13 -34 -62 -1 -78 -5 -76
-20 2 -9 17 -16 39 -18 34 -3 41 2 105 71 l69 74 675 7 c371 3 800 6 953 6
l277 0 0 25 0 25 -297 -2 c-164 -2 -695 -4 -1180 -5z m-453 -68 c-7 -8 -16
-15 -20 -15 -4 0 -10 7 -14 15 -4 11 2 15 21 15 21 0 24 -2 13 -15z"/>
<path d="M37472 4264 c-35 -24 -17 -34 61 -34 65 1 70 2 53 15 -11 8 -30 15
-43 15 -13 0 -23 5 -23 10 0 15 -22 12 -48 -6z"/>
<path d="M27345 4224 c-8609 -45 -8376 -44 -8360 -49 6 -2 78 -12 160 -21 124
-14 231 -17 625 -16 409 2 3443 17 7440 37 619 3 1361 8 1650 10 289 3 858 5
1265 5 1124 1 6137 29 6142 34 3 2 0 14 -7 25 -11 21 -15 21 -388 20 -207 -1
-4044 -21 -8527 -45z"/>
<path d="M36407 4250 c6 -22 23 -38 23 -21 0 17 -12 41 -20 41 -5 0 -6 -9 -3
-20z"/>
<path d="M36520 4256 c0 -7 -10 -16 -22 -19 -38 -10 -11 -20 36 -13 42 7 45 9
33 27 -14 22 -47 26 -47 5z"/>
<path d="M36623 4249 c6 -10 14 -14 17 -8 4 5 17 8 30 7 12 -2 25 2 27 8 2 7
-13 11 -41 11 -40 0 -43 -1 -33 -18z"/>
<path d="M36739 4251 c9 -15 23 -19 80 -20 65 -1 69 0 64 19 -6 24 -53 29 -53
5 0 -8 -9 -15 -20 -15 -11 0 -20 7 -20 15 0 18 -16 20 -24 3 -5 -10 -7 -10
-12 0 -3 6 -10 12 -15 12 -6 0 -6 -7 0 -19z"/>
<path d="M36980 4250 c12 -23 80 -29 80 -7 0 8 4 7 10 -3 8 -12 10 -11 10 8 0
24 -19 29 -50 12 -13 -7 -21 -7 -25 0 -3 5 -13 10 -21 10 -12 0 -12 -4 -4 -20z"/>
<path d="M36316 4245 c-9 -23 -8 -25 9 -25 17 0 19 9 6 28 -7 11 -10 10 -15
-3z"/>
<path d="M37384 4238 c-3 -4 4 -8 15 -8 11 0 22 4 25 8 2 4 -4 8 -15 8 -11 0
-23 -4 -25 -8z"/>
<path d="M5415 3530 c-4 -7 0 -19 9 -28 15 -15 18 -15 26 -2 5 8 8 20 7 25 -5
15 -34 18 -42 5z"/>
<path d="M7423 2384 c-6 -16 19 -44 39 -44 15 0 8 48 -8 54 -22 9 -24 8 -31
-10z"/>
<path d="M24011 1706 c-9 -10 -9 -16 -1 -21 17 -10 37 12 24 25 -8 8 -15 6
-23 -4z"/>
<path d="M5965 1550 c-7 -12 2 -30 16 -30 12 0 12 27 0 35 -5 3 -12 1 -16 -5z"/>
<path d="M48747 1523 c-16 -15 -6 -34 15 -31 29 4 38 38 10 38 -10 0 -22 -3
-25 -7z"/>
<path d="M11780 1471 c0 -25 4 -31 21 -31 16 0 20 5 17 27 -2 17 -10 29 -20
31 -14 3 -18 -3 -18 -27z"/>
<path d="M44755 1391 c-6 -11 9 -23 19 -14 9 9 7 23 -3 23 -6 0 -12 -4 -16 -9z"/>
<path d="M24153 383 c-21 -8 -16 -61 6 -73 29 -15 53 -2 49 28 -3 27 -35 53
-55 45z"/>
<path d="M42250 366 c0 -9 5 -16 10 -16 6 0 10 4 10 9 0 6 -4 13 -10 16 -5 3
-10 -1 -10 -9z"/>
</g>
</svg>
