<svg xmlns="http://www.w3.org/2000/svg"  viewBox="0 0 100 100" width="50px" height="50px"><circle cx="13" cy="29" r="2" fill="#78a0cf"/><circle cx="77" cy="13" r="1" fill="#f1bc19"/><circle cx="50" cy="50" r="37" fill="#cee1f4"/><circle cx="83" cy="15" r="4" fill="#f1bc19"/><circle cx="87" cy="24" r="2" fill="#78a0cf"/><circle cx="81" cy="76" r="2" fill="#fbcd59"/><circle cx="15" cy="63" r="4" fill="#fbcd59"/><circle cx="25" cy="87" r="2" fill="#78a0cf"/><circle cx="18.5" cy="53.5" r="2.5" fill="#fff"/><circle cx="16" cy="47" r="1" fill="#f1bc19"/><circle cx="80" cy="34" r="1" fill="#fff"/><g><path fill="#ef9922" d="M66.719,73H35.281C31.26,73,28,69.74,28,65.719V34.281C28,30.26,31.26,27,35.281,27h31.438 C70.74,27,74,30.26,74,34.281v31.438C74,69.74,70.74,73,66.719,73z"/></g><g><path fill="#472b29" d="M66.719,73.7H35.281c-4.401,0-7.981-3.58-7.981-7.981V34.281c0-4.401,3.581-7.981,7.981-7.981 h31.438c4.401,0,7.981,3.58,7.981,7.981v31.438C74.7,70.12,71.12,73.7,66.719,73.7z M35.281,27.7 c-3.629,0-6.581,2.952-6.581,6.581v31.438c0,3.629,2.952,6.581,6.581,6.581h31.438c3.629,0,6.581-2.952,6.581-6.581V34.281 c0-3.629-2.952-6.581-6.581-6.581H35.281z"/></g><g><path fill="#472b29" d="M31.5,40.167c-0.276,0-0.5-0.224-0.5-0.5v-4.333C31,32.393,33.393,30,36.333,30h14 c0.276,0,0.5,0.224,0.5,0.5s-0.224,0.5-0.5,0.5h-14C33.944,31,32,32.944,32,35.333v4.333C32,39.943,31.776,40.167,31.5,40.167z"/></g><g><path fill="#472b29" d="M42.583,70h-6.25C33.393,70,31,67.607,31,64.667V44.333c0-0.276,0.224-0.5,0.5-0.5 s0.5,0.224,0.5,0.5v20.333C32,67.056,33.944,69,36.333,69h6.25c0.276,0,0.5,0.224,0.5,0.5S42.86,70,42.583,70z"/></g><g><path fill="#472b29" d="M65.667,70h-19.75c-0.276,0-0.5-0.224-0.5-0.5s0.224-0.5,0.5-0.5h19.75 C68.056,69,70,67.056,70,64.667v-5.083c0-0.276,0.224-0.5,0.5-0.5s0.5,0.224,0.5,0.5v5.083C71,67.607,68.607,70,65.667,70z"/></g><g><path fill="#472b29" d="M70.5,56.167c-0.276,0-0.5-0.224-0.5-0.5V35.333C70,32.944,68.056,31,65.667,31h-2.75 c-0.276,0-0.5-0.224-0.5-0.5s0.224-0.5,0.5-0.5h2.75C68.607,30,71,32.393,71,35.333v20.333C71,55.943,70.776,56.167,70.5,56.167z"/></g><g><path fill="#472b29" d="M59.5,31h-6.25c-0.276,0-0.5-0.224-0.5-0.5s0.224-0.5,0.5-0.5h6.25c0.276,0,0.5,0.224,0.5,0.5 S59.776,31,59.5,31z"/></g><g><path fill="#fff" d="M50.5,64.483c2.895-6.972,9.514-7.217,15.365-2.588c0.257,0.204,0.635,0.031,0.635-0.297l0-21.734 c0-0.099-0.035-0.197-0.098-0.272C61.358,33.556,50.5,36.653,50.5,42.806V64.483z"/><path fill="#472b29" d="M50.5,64.732c-0.016,0-0.033-0.001-0.049-0.005c-0.117-0.023-0.201-0.126-0.201-0.245V42.806 c0-2.61,1.931-4.932,5.039-6.06c3.458-1.255,8.297-0.913,11.305,2.684c0.101,0.12,0.156,0.274,0.156,0.433v21.734 c0,0.246-0.137,0.464-0.356,0.571c-0.225,0.108-0.485,0.079-0.684-0.077c-3.205-2.535-6.668-3.567-9.503-2.831 c-2.396,0.622-4.29,2.461-5.476,5.319C50.691,64.673,50.6,64.732,50.5,64.732z M59.108,36.583c-1.287,0-2.541,0.231-3.648,0.633 c-2.905,1.054-4.709,3.196-4.709,5.59v20.546c1.257-2.42,3.083-3.993,5.331-4.577c3.032-0.789,6.561,0.251,9.939,2.922 c0.068,0.055,0.136,0.028,0.155,0.019c0.028-0.013,0.074-0.047,0.074-0.121V39.863c0-0.041-0.015-0.082-0.04-0.112 C64.316,37.485,61.65,36.583,59.108,36.583z"/></g><g><path fill="#fff" d="M50.5,64.483c-2.895-6.972-9.514-7.217-15.365-2.588c-0.257,0.204-0.635,0.031-0.635-0.297 l0-21.734c0-0.099,0.035-0.197,0.098-0.272c5.044-6.034,15.902-2.937,15.902,3.216V64.483z"/><path fill="#472b29" d="M50.5,64.732c-0.1,0-0.191-0.06-0.231-0.154c-1.186-2.857-3.08-4.697-5.476-5.319 c-2.833-0.736-6.299,0.296-9.503,2.831c-0.197,0.156-0.458,0.186-0.684,0.077c-0.22-0.106-0.356-0.325-0.356-0.571V39.863 c0-0.159,0.056-0.313,0.157-0.433c3.006-3.597,7.844-3.94,11.304-2.684c3.108,1.128,5.039,3.45,5.039,6.06v21.676 c0,0.119-0.084,0.222-0.201,0.245C50.533,64.731,50.516,64.732,50.5,64.732z M42.871,58.519c0.702,0,1.387,0.085,2.048,0.257 c2.248,0.583,4.074,2.157,5.331,4.577V42.806c0-2.394-1.805-4.536-4.709-5.59c-3.296-1.197-7.899-0.877-10.75,2.534 c-0.025,0.03-0.04,0.071-0.04,0.112v21.734c0,0.074,0.046,0.107,0.074,0.121c0.018,0.009,0.085,0.035,0.155-0.019 C37.621,59.609,40.355,58.519,42.871,58.519z"/></g></svg>