<?xml version="1.0" encoding="utf-8"?>
<svg xmlns="http://www.w3.org/2000/svg" xmlns:xlink="http://www.w3.org/1999/xlink" version= "1.1" width="914px" height="653px" viewBox="109 781 914 653">
<g id="layer1">
<g style="fill:rgb(6,137,156); fill-opacity:1.0; stroke-linejoin: miter">
<path d="M108.999,780.499C108.866394,780.499,108.73921,780.5517,108.64545,780.64545C108.55168,780.7392,108.499,780.8664,108.499,780.999L108.5,1434.0C108.5,1434.2761,108.72386,1434.5,109.0,1434.5L1023.001,1434.501C1023.1336,1434.501,1023.2608,1434.4482,1023.35455,1434.3545C1023.4483,1434.2607,1023.501,1434.1335,1023.501,1434.001L1023.5,781.0C1023.5,780.7239,1023.2761,780.5,1023.0,780.5L108.999,780.499 Z"/>
</g>
<g style="fill:rgb(255,255,255); fill-opacity:1.0; stroke-linejoin: miter">
<path d="M252.84216,1203.6287L593.88763,1103.4265L346.16458,1239.1033 Z"/>
</g>
<g style="fill:rgb(220,229,235); fill-opacity:1.0; stroke-linejoin: miter">
<path d="M593.88763,1103.4265L346.16458,1239.1033L385.94608,1323.8713 Z"/>
</g>
<g style="fill:rgb(255,255,255); fill-opacity:1.0; stroke-linejoin: miter">
<path d="M593.88763,1103.4265L396.41498,1256.8705L475.79895,1365.8665 Z"/>
</g>
<g style="fill:rgb(60,70,79); fill-opacity:1.0; stroke-linejoin: miter">
<path d="M385.94608,1323.8713L396.41498,1256.8705L419.38678,1288.3969 Z"/>
</g>
<g style="fill:rgb(0,0,0); fill-opacity:1.0; stroke-linejoin: miter">
<path d="M359.68436,1338.1686C359.68436,1338.1686,358.18887,1339.6642,355.3771,1342.2964"/>
</g>
<g style="fill:rgb(55,89,122); fill-opacity:1.0; stroke-linejoin: miter">
<path d="M389.54474,1181.0797Q368.50037,1184.4198,370.87268,1199.3915Q371.95435,1204.5115,375.68088,1206.2943Q376.3685,1206.6299,377.5772,1206.7634Q382.50934,1206.6093,389.89047,1207.4819Q390.7731,1214.123,392.1603,1218.7305Q400.0403,1240.6621,399.8536,1241.7289Q401.2722,1247.2338,401.7933,1257.0974L405.31308,1261.4406L420.56046,1257.2166Q420.71317,1254.0499,419.4271,1248.1768Q411.38095,1221.5652,408.32162,1205.8447Q442.90897,1197.9865,446.0871,1196.8624Q447.15552,1207.4199,448.1654,1211.2397Q448.48975,1213.3723,453.10022,1226.8049L456.62268,1241.4248L460.75873,1243.9388L473.56482,1238.2659Q473.4616,1234.8933,471.71466,1225.9613Q470.15857,1217.3052,466.96448,1207.5265L464.95648,1192.1156Q464.36792,1188.3064,463.4845,1185.2323Q461.31067,1177.5488,456.8841,1175.2389Q453.09125,1173.2218,446.71722,1173.8289Q444.85303,1173.9882,442.27957,1174.4296Q430.06174,1176.977,427.02286,1177.2357Q421.3074,1177.9847,413.1141,1178.0745L408.10068,1178.5754Q396.15466,1179.7681,389.62036,1181.0648"/>
</g>
<g style="fill:rgb(0,0,0); fill-opacity:1.0; stroke-linejoin: miter">
<path d="M447.51776,1236.7515Q446.96338,1240.5455,447.62915,1244.1118Q448.29382,1247.439,449.66797,1247.7875Q450.24988,1247.9731,451.13635,1247.8455Q457.3792,1246.4492,460.8294,1246.2793Q462.03937,1246.2178,462.7973,1246.3208Q463.1396,1246.332,464.9259,1246.7954L465.70734,1246.9081Q466.4707,1246.9794,467.53815,1246.8792Q470.67896,1246.5366,474.00854,1245.4486Q480.29163,1243.4592,476.9084,1240.2612Q475.98267,1239.4353,474.99585,1239.296Q474.60938,1239.2327,474.05255,1239.2603Q471.37494,1239.6166,470.67163,1239.5135Q469.30927,1239.425,468.0216,1238.8628Q465.60095,1237.9209,459.52838,1232.715L447.573,1236.733"/>
</g>
<g style="fill:rgb(0,0,0); fill-opacity:1.0; stroke-linejoin: miter">
<path d="M412.66754,1247.0697L401.53253,1251.7572Q402.11975,1257.3341,403.0744,1260.006Q404.99164,1265.5802,408.77917,1265.8894Q410.9579,1266.2488,416.41302,1264.9299Q420.5724,1263.7201,421.55524,1262.3809Q422.2345,1261.521,421.5371,1260.3713Q421.18677,1259.7687,420.46063,1258.9857Q417.25415,1255.8234,417.0462,1255.5094Q416.24786,1254.6067,415.61865,1253.6648Q414.1908,1251.6086,412.669,1247.0741"/>
</g>
<g style="fill:rgb(255,183,146); fill-opacity:1.0; stroke-linejoin: miter">
<path d="M457.72345,1162.3218L441.44553,1162.844L436.4954,1153.9117L423.35623,1159.1974Q424.9069,1162.8842,428.40768,1168.3976Q432.303,1174.4656,434.34604,1176.4607Q436.63626,1178.9115,440.77078,1178.5392Q445.5442,1178.2515,448.44135,1175.1577Q449.27106,1176.1011,450.96173,1176.0074Q454.0551,1175.7953,455.7951,1174.9443Q456.13702,1174.7424,456.35065,1174.471L457.029,1173.4432Q458.3321,1171.8998,458.55695,1171.4945Q459.16638,1170.5876,459.33508,1169.422Q459.4134,1168.9196,459.43256,1168.2164L459.46808,1164.538Q459.37274,1163.8749,457.74554,1162.3433"/>
</g>
<g style="fill:rgb(0,0,0); fill-opacity:1.0; stroke-linejoin: miter">
<path d="M399.7763,1121.4958Q396.30566,1121.9985,393.91974,1128.1434Q387.33807,1129.4985,380.63464,1134.9386Q376.43604,1138.6108,374.66245,1143.4734Q373.63678,1146.2924,373.15256,1150.3759Q372.90915,1152.4303,372.7716,1154.7539Q372.26407,1168.1598,371.95947,1169.8678Q371.767,1172.7653,369.5365,1185.4028Q369.2243,1187.5055,369.13248,1189.0428Q368.69833,1194.6106,371.21582,1200.4572L371.2523,1195.0442Q371.95444,1193.1011,372.5405,1192.0284Q373.21567,1190.7572,374.22705,1189.7035Q375.21042,1188.6321,377.75827,1186.6682Q379.4277,1184.54,380.00815,1184.2285Q380.23123,1183.9841,381.65295,1183.7374Q388.1081,1182.7769,415.17728,1178.0936L422.10202,1157.2937L423.35983,1159.589Q424.30154,1160.051,425.31473,1159.8887Q427.56155,1159.7517,437.92892,1155.5607Q435.53415,1150.6857,434.79538,1148.4292Q434.4258,1147.786,433.3843,1142.1481L432.4985,1139.637Q430.64163,1135.6371,428.03244,1133.2518Q426.99655,1132.3076,425.5187,1131.5681Q424.16306,1130.8778,421.27707,1130.0975Q411.761,1124.7625,407.77496,1123.1599Q402.5985,1120.9592,399.87842,1121.4767 M371.22763,1200.4987Q371.2206,1200.76,371.23907,1200.5408"/>
</g>
<g style="fill:rgb(0,0,0); fill-opacity:1.0; stroke-linejoin: miter">
<path d="M408.31873,1098.1029Q403.5008,1099.0098,401.36945,1102.7623Q399.1413,1106.8529,398.96375,1114.5449Q398.9223,1119.3201,400.0338,1122.6262L408.05432,1122.5697Q422.35684,1115.214,425.71182,1113.5538Q429.6423,1111.5934,429.6185,1111.8331Q427.92917,1110.3676,427.09055,1109.1981L424.27194,1104.6199Q423.55722,1103.518,422.8389,1102.6492Q421.38986,1100.889,419.689,1099.7899Q415.16693,1096.9547,408.3747,1098.0919"/>
</g>
<g style="fill:rgb(255,183,146); fill-opacity:1.0; stroke-linejoin: miter">
<path d="M379.1717,1164.3706L378.2773,1164.6582Q378.9297,1168.9093,380.24533,1171.8876Q380.80795,1173.1653,381.72855,1174.619Q385.88867,1180.3624,387.766,1183.789Q389.28754,1186.4722,395.6453,1185.5751Q402.36368,1184.6226,403.30972,1184.2754Q405.55917,1183.6691,407.49014,1182.4371Q411.15366,1180.3564,421.55258,1169.42L426.0706,1169.3856Q427.59366,1169.3226,428.93906,1169.1222Q434.027,1168.354,435.63876,1167.4182Q436.82852,1166.8058,437.87875,1165.3223Q438.96054,1165.8949,439.5482,1164.6708Q438.89304,1163.2196,436.47208,1160.6234Q437.60855,1160.5815,439.7971,1160.2336Q439.90036,1160.412,440.4529,1160.5708L443.11685,1161.2357L444.98083,1158.9507Q440.43478,1156.814,438.7357,1156.4856Q438.13248,1156.3452,437.36588,1156.2715Q434.77536,1156.2206,433.72177,1156.0226Q433.0958,1155.9984,432.6299,1156.1188Q432.0928,1156.2374,431.27994,1156.6171L427.23343,1158.7161L422.11722,1161.0175L412.4271,1166.1138Q409.78482,1167.4552,407.9122,1168.228Q403.44534,1170.1412,397.9947,1170.4946Q397.95453,1167.1653,397.45343,1165.9983L396.64404,1163.9446Q396.21356,1163.6421,395.71118,1163.4786Q394.8985,1163.0494,389.07538,1163.196L379.29288,1164.3562"/>
</g>
<g style="fill:rgb(255,183,146); fill-opacity:1.0; stroke-linejoin: miter">
<path d="M412.74307,1112.4526L411.55084,1117.2109L408.6234,1118.0305L407.20123,1120.957L405.79077,1120.2198Q405.0501,1116.7516,403.98193,1116.0173Q402.38184,1114.9213,401.1438,1116.0117Q400.19562,1116.8917,400.93658,1121.2397L399.91064,1121.5522Q399.81744,1125.1305,398.45343,1127.8657Q401.13623,1131.9082,402.58954,1133.3726Q403.92957,1134.8383,406.87857,1136.6813L408.98557,1147.6788L412.34268,1136.6245Q415.30258,1137.3765,417.1367,1137.4946Q418.5305,1137.5239,418.94272,1136.714Q419.4362,1135.9584,419.4089,1133.3251Q420.01785,1132.8307,420.0347,1132.4542Q420.0997,1132.319,420.01633,1131.1555Q421.5648,1130.5903,421.4097,1129.2087Q423.04153,1129.0289,423.23843,1128.6882Q423.42502,1128.5979,423.50735,1127.5033Q424.15457,1126.8961,424.18747,1126.6575Q424.5499,1126.0953,423.86783,1121.8156Q425.70993,1120.7206,425.72458,1119.5425Q425.56723,1116.303,425.94223,1112.3604Q424.06503,1112.9904,421.72592,1112.9839Q419.6199,1113.0294,412.77914,1112.4557"/>
</g>
<g style="fill:rgb(255,71,0); fill-opacity:0.11372549; stroke-linejoin: miter">
<path d="M407.5648,1135.143L408.8962,1147.8173L412.31052,1136.611L407.56924,1135.1443"/>
</g>
<g style="fill:rgb(0,0,0); fill-opacity:0.16078432; stroke-linejoin: miter">
<path d="M404.26202,1136.0099Q403.2879,1136.2012,401.2351,1141.6438L406.02042,1140.8881Q405.5631,1138.2653,405.2328,1137.2754Q404.86798,1136.1425,404.4486,1136.0248L404.4458,1136.0238Q404.35925,1135.9905,404.26202,1136.0099L404.26202,1136.011 Z M414.40384,1138.3275Q414.11996,1138.3833,413.74582,1138.9996Q413.30478,1139.7024,412.45706,1141.7793L415.75058,1141.3247Q415.3585,1139.7356,415.1133,1139.1394Q414.8372,1138.4448,414.56387,1138.3434L414.55972,1138.3418Q414.4855,1138.3116,414.40384,1138.3275L414.4039,1138.3276 Z M425.17545,1147.3901L423.93436,1152.6101L422.08524,1157.2245Q423.5046,1154.7809,424.13193,1152.7848Q424.7123,1151.0215,425.17343,1147.4052L425.17545,1147.3901L425.1755,1147.3905 Z M386.65747,1140.7961L386.65753,1140.7964Q388.56537,1142.9741,389.55432,1144.5265Q390.6615,1146.2258,391.68024,1148.5482Q392.68,1150.817,393.75476,1154.0664Q394.7398,1157.0066,396.6939,1163.6581Q395.46472,1157.9453,394.48267,1154.7875Q393.54968,1151.6681,391.1922,1145.6151L386.66278,1140.8009L386.65784,1140.796L386.6577,1140.797 Z M408.19565,1196.69Q408.88846,1199.1158,408.40872,1205.8107L420.75998,1202.7932L446.86633,1196.6971L408.2443,1196.69L408.1962,1196.6898L408.19583,1196.691 Z"/>
</g>
<g style="fill:rgb(0,0,0); fill-opacity:1.0; stroke-linejoin: miter">
<path d="M466.25708,1128.547L470.1269,1145.6643L451.16388,1170.1296Q451.023,1170.3444,451.05414,1170.206L449.6809,1152.0184L466.24036,1128.5704"/>
</g>
<g style="fill:rgb(255,255,255); fill-opacity:1.0; stroke-linejoin: miter">
<path d="M465.70642,1130.1715L469.27972,1145.9777L451.76953,1168.5688Q451.63916,1168.7667,451.6682,1168.6396L450.40002,1151.8448L465.69092,1130.1931"/>
</g>
<g style="fill:rgb(0,0,0); fill-opacity:1.0; stroke-linejoin: miter">
<path d="M466.15558,1150.2618L448.73645,1152.395L432.10483,1178.5015Q431.95053,1178.7067,432.06973,1178.6306L449.6546,1173.7861L466.13898,1150.2858"/>
</g>
<g style="fill:rgb(255,183,146); fill-opacity:1.0; stroke-linejoin: miter">
<path d="M458.5125,1160.8678L456.8338,1163.2306Q457.711,1162.8639,458.07123,1162.6488Q458.49323,1162.4028,458.65912,1162.1672Q459.00177,1161.6924,458.51398,1160.8704"/>
</g>
<g style="fill:rgb(255,183,146); fill-opacity:1.0; stroke-linejoin: miter">
<path d="M455.64093,1166.2886Q449.77893,1166.2972,449.5017,1166.416Q448.1565,1166.641,447.7727,1167.3607Q447.54553,1167.8384,447.7229,1168.3937Q447.90637,1168.8988,448.3626,1169.0688Q448.60492,1169.161,449.023,1169.1735Q449.18732,1169.1785,449.4223,1169.1704Q450.5324,1169.1096,450.69867,1169.1151Q451.10626,1169.112,451.513,1169.1554Q452.34808,1169.2329,453.9301,1169.6475L455.6391,1166.2924"/>
</g>
<g style="fill:rgb(255,183,146); fill-opacity:1.0; stroke-linejoin: miter">
<path d="M453.70172,1169.6935Q448.7323,1168.7965,447.72388,1168.8054Q446.5504,1168.7162,445.9264,1169.4741Q445.13965,1170.3367,446.22363,1171.5098Q446.701,1172.0536,447.35785,1172.4873Q448.02826,1172.9436,450.02814,1174.0801L453.69342,1169.7029"/>
</g>
<g style="fill:rgb(255,183,146); fill-opacity:1.0; stroke-linejoin: miter">
<path d="M457.74347,1162.6104Q455.4865,1162.5441,454.31976,1162.8381Q453.0058,1163.1765,452.48254,1163.9186Q452.19568,1164.3484,452.265,1164.7825Q452.34106,1165.2076,452.7475,1165.4543Q453.07574,1165.6537,453.74213,1165.723Q454.29584,1165.7874,455.596,1165.7502L457.7392,1162.6166"/>
</g>
<g style="fill:rgb(255,255,255); fill-opacity:1.0; stroke-linejoin: miter">
<path d="M515.12634,1185.044L509.38403,1179.3096L503.64166,1173.5751Q450.88855,1214.5939,398.13538,1255.6127Q411.35822,1273.8627,424.58112,1292.1127Q468.20953,1265.2927,511.838,1238.473L515.12634,1185.044"/>
</g>
<g style="fill:rgb(255,255,255); fill-opacity:1.0; stroke-linejoin: miter">
<path d="M926.1043,976.22614L921.111,975.5024L916.1185,974.7785Q917.6761,976.1215,919.2338,977.46454Q918.5069,979.37286,917.7806,981.2807L926.1043,976.22614"/>
</g>
<g style="fill:rgb(255,255,255); fill-opacity:1.0; stroke-linejoin: miter">
<path d="M921.95593,973.37115L921.8402,972.7829L921.72485,972.1951Q920.50055,974.91595,919.27606,977.63666Q921.42377,979.57196,923.57214,981.50714L921.95593,973.37115"/>
</g>
<g style="fill:rgb(255,255,255); fill-opacity:1.0; stroke-linejoin: miter">
<path d="M547.8187,1012.33295L547.70306,1011.7452L547.5876,1011.1568Q546.36316,1013.87823,545.13873,1016.59906Q547.2871,1018.534,549.4352,1020.4692L547.8187,1012.33295"/>
</g>
<g style="fill:rgb(255,255,255); fill-opacity:1.0; stroke-linejoin: miter">
<path d="M734.6944,1289.4014L729.7012,1288.678L724.7087,1287.9534Q726.2661,1289.2966,727.8239,1290.6399Q727.0972,1292.5481,726.3703,1294.4563L734.6944,1289.4014"/>
</g>
<g style="fill:rgb(255,255,255); fill-opacity:1.0; stroke-linejoin: miter">
<path d="M730.5461,1286.5464L730.4305,1285.958L730.3148,1285.3699Q729.0906,1288.0913,727.86597,1290.812Q730.01416,1292.7473,732.1623,1294.6824L730.5461,1286.5464"/>
</g>
<g style="fill:rgb(255,255,255); fill-opacity:1.0; stroke-linejoin: miter">
<path d="M326.74158,930.30914L321.74854,929.5854L316.75586,928.86163Q318.31372,930.20465,319.87134,931.5479Q319.14453,933.4561,318.41772,935.36395L326.74158,930.30914"/>
</g>
<g style="fill:rgb(255,255,255); fill-opacity:1.0; stroke-linejoin: miter">
<path d="M322.59338,927.4543L322.47778,926.8659L322.36206,926.2779Q321.13794,928.9987,319.91333,931.7199Q322.06152,933.65485,324.2096,935.59015L322.59338,927.4543"/>
</g>
<g style="fill:rgb(255,255,255); fill-opacity:1.0; stroke-linejoin: miter">
<path d="M303.85864,965.0666L311.21448,966.1331L318.57043,967.1999Q316.2755,965.22064,313.9807,963.24176Q315.0514,960.4305,316.12195,957.6197L303.85864,965.0666"/>
</g>
<g style="fill:rgb(255,255,255); fill-opacity:1.0; stroke-linejoin: miter">
<path d="M309.9702,969.27325L310.14062,970.1397L310.31067,971.00616Q312.11487,966.997,313.9187,962.9881Q310.75366,960.13727,307.58875,957.28656L309.9702,969.27325"/>
</g>
<g style="fill:rgb(255,255,255); fill-opacity:1.0; stroke-linejoin: miter">
<path d="M694.1496,1011.44257L701.5055,1012.50946L708.8614,1013.576Q706.5666,1011.59686,704.27167,1009.61774Q705.3423,1006.8068,706.4128,1003.99567L694.1496,1011.44257"/>
</g>
<g style="fill:rgb(255,255,255); fill-opacity:1.0; stroke-linejoin: miter">
<path d="M700.26105,1015.64935L700.4313,1016.51556L700.6018,1017.38214Q702.40546,1013.3736,704.2094,1009.3642Q701.0445,1006.5135,697.87933,1003.66254L700.26105,1015.64935"/>
</g>
<g style="fill:rgb(255,255,255); fill-opacity:1.0; stroke-linejoin: miter">
<path d="M720.5169,1307.7244L725.15216,1309.7163L729.7875,1311.708Q728.6307,1310.0068,727.4738,1308.3064Q728.6695,1306.6519,729.8656,1304.9968L720.5169,1307.7244"/>
</g>
<g style="fill:rgb(255,255,255); fill-opacity:1.0; stroke-linejoin: miter">
<path d="M723.78485,1311.5557L723.7442,1312.1545L723.70355,1312.7522Q725.5905,1310.4404,727.47754,1308.1296Q725.90326,1305.7048,724.32916,1303.279L723.78485,1311.5557"/>
</g>
<g style="fill:rgb(255,255,255); fill-opacity:1.0; stroke-linejoin: miter">
<path d="M870.16113,1093.123L874.7967,1095.1145L879.4319,1097.1062Q878.27545,1095.4055,877.1181,1093.7046Q878.31384,1092.0498,879.5099,1090.395L870.16113,1093.123"/>
</g>
<g style="fill:rgb(255,255,255); fill-opacity:1.0; stroke-linejoin: miter">
<path d="M873.4295,1096.9543L873.38855,1097.5527L873.348,1098.1509Q875.2349,1095.8391,877.122,1093.5273Q875.54785,1091.1025,873.9735,1088.6777L873.4295,1096.9543"/>
</g>
<g style="fill:rgb(105,232,251); fill-opacity:1.0; stroke-linejoin: miter">
<path d="M458.68884,956.77716C459.1637,955.00616,459.3899,953.17975,459.36267,951.3293C459.19653,940.38934,450.16248,931.6236,439.22205,931.7895C434.67126,931.8575,430.24927,933.50494,426.77087,936.4284C423.67773,939.0274,421.44116,942.5308,420.38257,946.398C413.05176,945.8243,406.50342,950.56976,404.53796,957.38116C403.42566,957.1453,402.29102,957.035,401.1494,957.0527C392.73035,957.18024,385.98328,964.08356,386.11035,972.50336C386.23816,980.92377,393.1903,987.61993,401.6095,987.49335L454.9176,986.6879C463.33728,986.56036,470.08362,979.65594,469.95642,971.23676C469.8523,964.3475,465.20422,958.52936,458.68884,956.77716 Z"/>
</g>
<g style="fill:rgb(105,232,251); fill-opacity:1.0; stroke-linejoin: miter">
<path d="M618.9323,898.4428C618.7114,897.61945,618.6062,896.76996,618.6189,895.9097C618.6961,890.8223,622.8973,886.7463,627.9846,886.8233C630.1009,886.8549,632.15717,887.62164,633.7746,888.9803C635.21313,890.1895,636.2532,891.8184,636.7456,893.61676C640.1544,893.3497,643.19946,895.55646,644.1134,898.72406C644.6308,898.6141,645.15845,898.56305,645.68933,898.5715C649.6043,898.63055,652.74176,901.84064,652.6826,905.75616C652.6232,909.6718,649.3901,912.78534,645.47504,912.7266L620.6859,912.3516C616.7705,912.29254,613.63336,909.0817,613.6926,905.16656C613.74097,901.9633,615.9024,899.2576,618.9323,898.4428 Z"/>
</g>
<g style="fill:rgb(105,232,251); fill-opacity:1.0; stroke-linejoin: miter">
<path d="M913.56964,1274.8882C913.8827,1273.7192,914.03217,1272.5146,914.0143,1271.2935C913.9047,1264.0752,907.9436,1258.2915,900.7249,1258.4016C897.72205,1258.4456,894.80414,1259.5332,892.5093,1261.4614C890.4683,1263.177,888.99243,1265.4885,888.2938,1268.04C883.4571,1267.6619,879.1362,1270.793,877.83923,1275.2871C877.10583,1275.1318,876.3568,1275.0591,875.60345,1275.0708C870.04816,1275.1545,865.5965,1279.7097,865.6805,1285.2651C865.76465,1290.8213,870.3522,1295.2395,875.90765,1295.1558L911.0817,1294.6235C916.6371,1294.5393,921.08856,1289.9836,921.0044,1284.4282C920.9355,1279.8828,917.8687,1276.0444,913.56964,1274.8882 Z"/>
</g>
<g style="fill:rgb(105,232,251); fill-opacity:1.0; stroke-linejoin: miter">
<path d="M241.2478,862.15485C241.02673,861.3316,240.92151,860.4821,240.93445,859.6215C241.01147,854.5345,245.21265,850.4583,250.29993,850.53534C252.41626,850.5672,254.47253,851.33344,256.08997,852.69244C257.5287,853.9014,258.56836,855.5306,259.06104,857.3288C262.4701,857.0617,265.5149,859.2685,266.42896,862.43585C266.94617,862.32623,267.47363,862.2753,268.00488,862.28314C271.9198,862.34235,275.05713,865.5529,274.99817,869.4681C274.93848,873.3837,271.70557,876.4975,267.7904,876.4384L243.00134,876.0639C239.0857,876.00446,235.94861,872.79376,236.00793,868.8785C236.05652,865.67523,238.2179,862.96967,241.2478,862.15485 Z"/>
</g>
</g>
</svg>