<?xml version="1.0" encoding="UTF-8"?>
<!DOCTYPE svg PUBLIC "-//W3C//DTD SVG 1.1//EN" "http://www.w3.org/Graphics/SVG/1.1/DTD/svg11.dtd">
<!-- Creator: CorelDRAW 2020 (64-Bit) -->
<svg xmlns="http://www.w3.org/2000/svg" xml:space="preserve" width="306.998mm" height="285.156mm" version="1.1" style="shape-rendering:geometricPrecision; text-rendering:geometricPrecision; image-rendering:optimizeQuality; fill-rule:evenodd; clip-rule:evenodd"
viewBox="0 0 30699.84 28515.62"
 xmlns:xlink="http://www.w3.org/1999/xlink"
 xmlns:xodm="http://www.corel.com/coreldraw/odm/2003">
 <defs>
  <style type="text/css">
   <![CDATA[
    .str0 {stroke:#373435;stroke-width:20;stroke-miterlimit:22.9256}
    .fil0 {fill:none}
    .fil4 {fill:#373435}
    .fil1 {fill:#EC268F}
    .fil2 {fill:#20C4CB}
    .fil3 {fill:#EA356D}
   ]]>
  </style>
 </defs>
 <g id="Capa_x0020_1">
  <metadata id="CorelCorpID_0Corel-Layer"/>
  <path class="fil0 str0" d="M25963.85 7165.46l21.81 12609.33 -5970.16 43.63c-610.83,87.26 -1934.3,312.69 -2770.56,1105.32 -407.22,349.05 -807.17,436.31 -1294.38,479.94 -356.32,-7.28 -676.28,-58.18 -1003.51,-334.51 -669.01,-450.85 -1621.62,-1134.4 -2945.08,-1258.02l-5999.25 -94.54"/>
  <path class="fil0 str0" d="M6002.72 19716.61l14.54 -12522.06 1207.13 -43.63 -21.82 -1243.48 3948.59 7.27c2566.95,-138.16 4275.83,1039.87 4799.4,1483.45 1105.31,-741.72 2188.81,-1468.9 4661.23,-1527.08l-429.03 334.5c-1948.85,79.99 -2806.93,770.82 -4014.04,1403.46l-29.09 12165.75c1119.86,-850.81 1977.93,-1352.56 3766.79,-1570.72l4464.9 58.18 0 -7911.73 741.73 -1556.17 -58.18 -392.67 908.98 -1236.22"/>
  <path class="fil0 str0" d="M15783.3 19745.7c-712.63,-538.12 -1883.39,-1287.11 -3475.92,-1519.81l-4741.22 -50.9 14.54 -11933.04 4508.53 7.26c2107.74,141.21 3374.12,1192.59 3672.26,1425.28l21.81 12071.21z"/>
  <path class="fil0 str0" d="M17768.51 17673.24l349.05 43.63 378.13 -1803.42c-99.38,-63.02 -167.25,65.45 -298.14,-189.06l-429.04 1948.85z"/>
  <path class="fil0 str0" d="M18561.14 15862.56c1396.19,-610.84 2356.07,-1316.21 3483.2,-2290.63l807.17 -1396.18c58.18,-239.97 -19.39,-189.07 -29.08,-283.6l-676.28 -29.09c1708.87,-1243.48 1628.34,-1889.99 1687.05,-1977.93l509.03 -1018.06c94.54,-159.98 101.8,-269.06 -58.17,-327.24l-618.11 -7.26c763.54,-494.49 1134.41,-923.53 1570.72,-1592.53l1905.21 -2843.28 109.08 -210.88c29.08,-80 -36.36,-159.98 -138.17,-196.34 -1468.91,458.12 -2836,908.97 -4217.65,1592.53 -1519.81,959.88 -2741.47,1643.42 -3861.33,2959.62 -399.95,814.45 -596.29,1228.94 -654.47,2312.44 -94.53,-87.26 -225.42,-545.39 -225.42,-894.43 -101.81,-174.53 -239.97,-174.53 -370.86,21.81 -538.12,698.1 -676.28,1185.31 -814.45,2050.65 -36.35,1774.33 792.63,3301.41 1221.67,3948.6 1018.05,-4370.36 3301.4,-7351.81 6239.21,-10144.18l225.43 283.6c-1999.75,1643.43 -4959.38,5381.14 -6093.78,10042.38z"/>
  <path class="fil1 str0" d="M18561.14 15862.56c1396.19,-610.84 2356.07,-1316.21 3483.2,-2290.63l807.17 -1396.18c58.18,-239.97 -19.39,-189.07 -29.08,-283.6l-676.28 -29.09c1708.87,-1243.48 1628.34,-1889.99 1687.05,-1977.93l509.03 -1018.06c94.54,-159.98 101.8,-269.06 -58.17,-327.24l-618.11 -7.26c763.54,-494.49 1134.41,-923.53 1570.72,-1592.53l1905.21 -2843.28 109.08 -210.88c29.08,-80 -36.36,-159.98 -138.17,-196.34 -1468.91,458.12 -2836,908.97 -4217.65,1592.53 -1519.81,959.88 -2741.47,1643.42 -3861.33,2959.62 -399.95,814.45 -596.29,1228.94 -654.47,2312.44 -94.53,-87.26 -225.42,-545.39 -225.42,-894.43 -101.81,-174.53 -239.97,-174.53 -370.86,21.81 -538.12,698.1 -676.28,1185.31 -814.45,2050.65 -36.35,1774.33 792.63,3301.41 1221.67,3948.6 1018.05,-4370.36 3301.4,-7351.81 6239.21,-10144.18l225.43 283.6c-1999.75,1643.43 -4959.38,5381.14 -6093.78,10042.38z"/>
  <path class="fil2 str0" d="M7566.16 18174.99l14.54 -11933.04 4508.53 7.26c2107.74,141.21 3374.12,1192.59 3672.26,1425.28l21.81 12071.21c-712.63,-538.12 -1883.39,-1287.11 -3475.92,-1519.81l-4741.22 -50.9zm8573.47 1599.8l29.09 -12165.75c1207.11,-632.64 2065.19,-1323.47 4014.04,-1403.46l429.03 -334.5c-2472.42,58.18 -3555.92,785.36 -4661.23,1527.08 -523.57,-443.58 -2232.45,-1621.61 -4799.4,-1483.45l-3948.59 -7.27 21.82 1243.48 -1207.13 43.63 -14.54 12522.06 5999.25 94.54c1323.46,123.62 2276.07,807.17 2945.08,1258.02 327.23,276.33 647.19,327.23 1003.51,334.51 487.21,-43.63 887.16,-130.89 1294.38,-479.94 836.26,-792.63 2159.73,-1018.06 2770.56,-1105.32l5970.16 -43.63 -21.81 -12609.33 -908.98 1236.22 58.18 392.67 -741.73 1556.17 0 7911.73 -4464.9 -58.18c-1788.86,218.16 -2646.93,719.91 -3766.79,1570.72z"/>
  <path class="fil3 str0" d="M24654.92 5820.18c-1999.75,1643.43 -4959.38,5381.14 -6093.78,10042.38 1396.19,-610.84 2356.07,-1316.21 3483.2,-2290.63l807.17 -1396.18c58.18,-239.97 -19.39,-189.07 -29.08,-283.6l-676.28 -29.09c1708.87,-1243.48 1628.34,-1889.99 1687.05,-1977.93l509.03 -1018.06c94.54,-159.98 101.8,-269.06 -58.17,-327.24l-618.11 -7.26c763.54,-494.49 1134.41,-923.53 1570.72,-1592.53l1905.21 -2843.28 109.08 -210.88c29.08,-80 -36.36,-159.98 -138.17,-196.34 -1468.91,458.12 -2836,908.97 -4217.65,1592.53 -1519.81,959.88 -2741.47,1643.42 -3861.33,2959.62 -399.95,814.45 -596.29,1228.94 -654.47,2312.44 -94.53,-87.26 -225.42,-545.39 -225.42,-894.43 -101.81,-174.53 -239.97,-174.53 -370.86,21.81 -538.12,698.1 -676.28,1185.31 -814.45,2050.65 -36.35,1774.33 792.63,3301.41 1221.67,3948.6 1018.05,-4370.36 3301.4,-7351.81 6239.21,-10144.18l225.43 283.6z"/>
  <path class="fil4 str0" d="M18117.56 17716.87l378.13 -1803.42c-99.38,-63.02 -167.25,65.45 -298.14,-189.06l-429.04 1948.85 349.05 43.63z"/>
 </g>
</svg>
