<?xml version="1.0" encoding="UTF-8"?>
<svg xmlns="http://www.w3.org/2000/svg" xmlns:xlink="http://www.w3.org/1999/xlink" viewBox="0 0 40 40" width="40px" height="40px">
<g id="surface365066816">
<path style=" stroke:none;fill-rule:nonzero;fill:rgb(12.54902%,76.862746%,79.607844%);fill-opacity:1;" d="M 20 1 C 9.507812 1 1 9.507812 1 20 C 1 30.492188 9.507812 39 20 39 C 30.492188 39 39 30.492188 39 20 C 39 9.507812 30.492188 1 20 1 Z M 20 1 "/>
<path style=" stroke:none;fill-rule:nonzero;fill:rgb(100%,100%,100%);fill-opacity:1;" d="M 38.890625 22.007812 C 38.894531 21.980469 38.898438 21.953125 38.902344 21.925781 C 38.898438 21.953125 38.894531 21.980469 38.890625 22.007812 Z M 1.097656 21.921875 C 1.101562 21.957031 1.109375 21.992188 1.113281 22.027344 C 1.109375 21.992188 1.101562 21.957031 1.097656 21.921875 Z M 22.453125 25.234375 L 27.371094 25.234375 L 28.144531 20.242188 L 22.453125 20.242188 L 22.453125 17.511719 C 22.453125 15.4375 23.132812 13.597656 25.074219 13.597656 L 28.191406 13.597656 L 28.191406 9.238281 C 27.644531 9.164062 26.484375 9 24.296875 9 C 19.722656 9 17.042969 11.414062 17.042969 16.917969 L 17.042969 20.242188 L 12.339844 20.242188 L 12.339844 25.234375 L 17.042969 25.234375 L 17.042969 38.699219 C 17.96875 38.839844 18.914062 38.933594 19.882812 38.933594 C 20.757812 38.933594 21.609375 38.855469 22.453125 38.742188 Z M 22.453125 25.234375 "/>
<path style=" stroke:none;fill-rule:nonzero;fill:rgb(0%,0%,0%);fill-opacity:1;" d="M 20 1.5 C 30.199219 1.5 38.5 9.800781 38.5 20 C 38.5 30.199219 30.199219 38.5 20 38.5 C 9.800781 38.5 1.5 30.199219 1.5 20 C 1.5 9.800781 9.800781 1.5 20 1.5 M 20 1 C 9.507812 1 1 9.507812 1 20 C 1 30.492188 9.507812 39 20 39 C 30.492188 39 39 30.492188 39 20 C 39 9.507812 30.492188 1 20 1 Z M 20 1 "/>
</g>
</svg>
