<?xml version="1.0" encoding="UTF-8"?>
<svg xmlns="http://www.w3.org/2000/svg" xmlns:xlink="http://www.w3.org/1999/xlink" viewBox="0 0 40 40" width="40px" height="40px">
<g id="surface60492340">
<path style=" stroke:none;fill-rule:nonzero;fill:rgb(100%,100%,100%);fill-opacity:1;" d="M 4.222656 29.296875 L 4.117188 29.117188 C 2.507812 26.332031 1.65625 23.148438 1.660156 19.910156 C 1.664062 9.761719 9.925781 1.5 20.078125 1.5 C 25.003906 1.503906 29.632812 3.417969 33.109375 6.898438 C 36.585938 10.378906 38.5 15.007812 38.5 19.925781 C 38.496094 30.078125 30.230469 38.339844 20.078125 38.339844 C 16.996094 38.339844 13.953125 37.566406 11.269531 36.101562 L 11.09375 36.003906 L 1.710938 38.464844 Z M 4.222656 29.296875 "/>
<path style=" stroke:none;fill-rule:nonzero;fill:rgb(0%,0%,0%);fill-opacity:1;" d="M 20.078125 2 C 24.867188 2 29.371094 3.867188 32.753906 7.253906 C 36.136719 10.640625 38 15.140625 38 19.925781 C 37.996094 29.804688 29.957031 37.839844 20.074219 37.839844 C 17.082031 37.839844 14.121094 37.085938 11.507812 35.660156 L 11.160156 35.472656 L 10.777344 35.570312 L 2.421875 37.761719 L 4.648438 29.632812 L 4.757812 29.226562 L 4.550781 28.867188 C 2.984375 26.15625 2.15625 23.058594 2.160156 19.910156 C 2.164062 10.035156 10.203125 2 20.078125 2 M 20.078125 1 C 9.652344 1 1.164062 9.484375 1.15625 19.910156 C 1.15625 23.246094 2.027344 26.5 3.683594 29.367188 L 1 39.167969 L 11.03125 36.539062 C 13.792969 38.046875 16.90625 38.839844 20.070312 38.839844 L 20.078125 38.839844 C 30.507812 38.839844 38.996094 30.355469 39 19.925781 C 39 14.871094 37.035156 10.121094 33.460938 6.546875 C 29.890625 2.972656 25.140625 1.003906 20.078125 1 Z M 20.078125 1 "/>
<path style=" stroke:none;fill-rule:nonzero;fill:rgb(12.54902%,76.862746%,79.607844%);fill-opacity:1;" d="M 19.996094 35 C 17.492188 35 15.011719 34.367188 12.828125 33.175781 L 11.394531 32.394531 L 9.816406 32.808594 L 6.574219 33.660156 L 7.40625 30.628906 L 7.859375 28.972656 L 7 27.484375 C 5.691406 25.21875 5 22.628906 5 19.992188 C 5.003906 11.726562 11.730469 5 19.996094 5 C 24.007812 5 27.777344 6.5625 30.609375 9.398438 C 33.441406 12.230469 35 16 35 20.003906 C 34.996094 28.273438 28.269531 35 19.996094 35 Z M 19.996094 35 "/>
<path style=" stroke:none;fill-rule:nonzero;fill:rgb(100%,100%,100%);fill-opacity:1;" d="M 28.085938 24.1875 C 27.640625 23.964844 25.464844 22.894531 25.058594 22.746094 C 24.652344 22.597656 24.355469 22.523438 24.0625 22.96875 C 23.765625 23.410156 22.917969 24.40625 22.660156 24.703125 C 22.402344 24.996094 22.144531 25.035156 21.699219 24.8125 C 21.257812 24.59375 19.828125 24.121094 18.140625 22.613281 C 16.820312 21.441406 15.933594 19.992188 15.675781 19.546875 C 15.417969 19.105469 15.648438 18.867188 15.867188 18.644531 C 16.066406 18.445312 16.3125 18.128906 16.53125 17.867188 C 16.753906 17.609375 16.828125 17.425781 16.976562 17.128906 C 17.125 16.835938 17.050781 16.574219 16.9375 16.355469 C 16.828125 16.132812 15.941406 13.953125 15.574219 13.066406 C 15.214844 12.203125 14.847656 12.320312 14.574219 12.308594 C 14.316406 12.296875 14.023438 12.292969 13.726562 12.292969 C 13.433594 12.292969 12.953125 12.402344 12.546875 12.847656 C 12.140625 13.292969 11 14.363281 11 16.542969 C 11 18.722656 12.585938 20.828125 12.808594 21.121094 C 13.027344 21.417969 15.929688 25.890625 20.375 27.808594 C 21.429688 28.261719 22.257812 28.535156 22.898438 28.738281 C 23.960938 29.078125 24.925781 29.027344 25.6875 28.914062 C 26.539062 28.785156 28.308594 27.84375 28.675781 26.808594 C 29.046875 25.777344 29.046875 24.890625 28.933594 24.703125 C 28.824219 24.519531 28.527344 24.40625 28.085938 24.1875 Z M 28.085938 24.1875 "/>
</g>
</svg>
