<?xml version="1.0" encoding="UTF-8"?>
<svg xmlns="http://www.w3.org/2000/svg" xmlns:xlink="http://www.w3.org/1999/xlink" viewBox="0 0 40 40" width="40px" height="40px">
<g id="surface365141310">
<path style=" stroke:none;fill-rule:nonzero;fill:rgb(12.54902%,76.862746%,79.607844%);fill-opacity:1;" d="M 35.625 8.125 L 35.625 31.875 C 35.625 33.945312 33.945312 35.625 31.875 35.625 L 8.125 35.625 C 6.054688 35.625 4.375 33.945312 4.375 31.875 L 4.375 8.125 C 4.375 6.054688 6.054688 4.375 8.125 4.375 L 31.875 4.375 C 33.945312 4.375 35.625 6.054688 35.625 8.125 Z M 35.625 8.125 "/>
<path style=" stroke:none;fill-rule:nonzero;fill:rgb(100%,100%,100%);fill-opacity:1;" d="M 33.125 4.375 L 6.875 4.375 L 4.375 6.875 C 4.375 7.910156 5.214844 8.75 6.25 8.75 L 33.75 8.75 C 34.785156 8.75 35.625 7.910156 35.625 6.875 Z M 33.125 4.375 "/>
<path style=" stroke:none;fill-rule:nonzero;fill:rgb(0%,0%,0%);fill-opacity:1;" d="M 31.875 36.25 L 8.125 36.25 C 5.714844 36.25 3.75 34.285156 3.75 31.875 L 3.75 8.125 C 3.75 5.714844 5.714844 3.75 8.125 3.75 L 31.875 3.75 C 34.285156 3.75 36.25 5.714844 36.25 8.125 L 36.25 31.875 C 36.25 34.285156 34.285156 36.25 31.875 36.25 Z M 8.125 5 C 6.402344 5 5 6.402344 5 8.125 L 5 31.875 C 5 33.597656 6.402344 35 8.125 35 L 31.875 35 C 33.597656 35 35 33.597656 35 31.875 L 35 8.125 C 35 6.402344 33.597656 5 31.875 5 Z M 8.125 5 "/>
<path style=" stroke:none;fill-rule:nonzero;fill:rgb(0%,0%,0%);fill-opacity:1;" d="M 20.226562 31.96875 C 20.117188 31.96875 20.003906 31.9375 19.90625 31.878906 C 19.609375 31.703125 19.511719 31.316406 19.6875 31.023438 L 20.332031 29.949219 C 20.507812 29.652344 20.890625 29.558594 21.1875 29.734375 C 21.484375 29.910156 21.582031 30.296875 21.40625 30.589844 L 20.761719 31.664062 C 20.644531 31.859375 20.4375 31.96875 20.226562 31.96875 Z M 20.226562 31.96875 "/>
<path style=" stroke:none;fill-rule:nonzero;fill:rgb(0%,0%,0%);fill-opacity:1;" d="M 17.476562 30.125 C 17.347656 30.125 17.21875 30.085938 17.105469 30.003906 C 16.828125 29.796875 16.769531 29.40625 16.976562 29.128906 L 17.722656 28.125 C 17.929688 27.851562 18.320312 27.792969 18.597656 28 C 18.875 28.203125 18.929688 28.597656 18.726562 28.875 L 17.980469 29.875 C 17.855469 30.039062 17.667969 30.125 17.476562 30.125 Z M 17.476562 30.125 "/>
<path style=" stroke:none;fill-rule:nonzero;fill:rgb(0%,0%,0%);fill-opacity:1;" d="M 14.925781 28.023438 C 14.777344 28.023438 14.625 27.972656 14.507812 27.863281 C 14.25 27.628906 14.230469 27.234375 14.464844 26.980469 L 15.304688 26.054688 C 15.535156 25.800781 15.933594 25.78125 16.1875 26.011719 C 16.441406 26.246094 16.460938 26.640625 16.230469 26.894531 L 15.390625 27.820312 C 15.265625 27.957031 15.09375 28.023438 14.925781 28.023438 Z M 14.925781 28.023438 "/>
<path style=" stroke:none;fill-rule:nonzero;fill:rgb(0%,0%,0%);fill-opacity:1;" d="M 12.585938 25.6875 C 12.417969 25.6875 12.25 25.621094 12.125 25.484375 C 11.894531 25.230469 11.910156 24.832031 12.167969 24.601562 L 13.09375 23.761719 C 13.347656 23.53125 13.742188 23.546875 13.976562 23.804688 C 14.207031 24.058594 14.1875 24.453125 13.933594 24.6875 L 13.007812 25.527344 C 12.886719 25.636719 12.738281 25.6875 12.585938 25.6875 Z M 12.585938 25.6875 "/>
<path style=" stroke:none;fill-rule:nonzero;fill:rgb(0%,0%,0%);fill-opacity:1;" d="M 10.488281 23.132812 C 10.296875 23.132812 10.109375 23.046875 9.988281 22.882812 C 9.78125 22.605469 9.839844 22.214844 10.117188 22.007812 L 11.117188 21.261719 C 11.394531 21.054688 11.785156 21.113281 11.992188 21.390625 C 12.199219 21.667969 12.140625 22.058594 11.863281 22.265625 L 10.863281 23.011719 C 10.75 23.09375 10.621094 23.132812 10.488281 23.132812 Z M 10.488281 23.132812 "/>
<path style=" stroke:none;fill-rule:nonzero;fill:rgb(0%,0%,0%);fill-opacity:1;" d="M 8.644531 20.386719 C 8.433594 20.386719 8.226562 20.28125 8.109375 20.082031 C 7.933594 19.789062 8.027344 19.402344 8.324219 19.226562 L 9.398438 18.585938 C 9.695312 18.410156 10.078125 18.503906 10.253906 18.800781 C 10.429688 19.097656 10.335938 19.480469 10.039062 19.65625 L 8.964844 20.300781 C 8.867188 20.359375 8.753906 20.386719 8.644531 20.386719 Z M 8.644531 20.386719 "/>
<path style=" stroke:none;fill-rule:nonzero;fill:rgb(100%,100%,100%);fill-opacity:1;" d="M 32.167969 27.792969 C 32.054688 27.929688 31.929688 28.070312 31.804688 28.207031 C 31.363281 28.675781 30.835938 29.117188 30.304688 29.335938 C 28.570312 30.042969 26.824219 30.042969 24.6875 28.8125 L 24.675781 28.78125 C 18.894531 26 13.992188 21.101562 11.210938 15.320312 L 11.207031 15.3125 C 9.976562 13.175781 9.976562 11.429688 10.679688 9.695312 C 10.898438 9.164062 11.335938 8.644531 11.804688 8.195312 C 11.945312 8.070312 12.085938 7.945312 12.226562 7.832031 C 12.867188 7.292969 13.84375 7.425781 14.3125 8.117188 L 17.148438 12.324219 C 17.488281 12.832031 17.457031 13.492188 17.074219 13.96875 L 16.460938 14.726562 L 15.53125 15.875 C 17.644531 19.324219 20.679688 22.367188 24.132812 24.480469 L 25.273438 23.554688 L 26.03125 22.945312 C 26.507812 22.554688 27.167969 22.53125 27.675781 22.867188 L 31.882812 25.707031 C 32.574219 26.175781 32.707031 27.148438 32.167969 27.792969 Z M 32.167969 27.792969 "/>
<path style=" stroke:none;fill-rule:nonzero;fill:rgb(100%,100%,100%);fill-opacity:1;" d="M 32.167969 27.792969 C 32.054688 27.929688 31.929688 28.070312 31.804688 28.207031 C 31.351562 28.195312 30.886719 28.054688 30.480469 27.78125 L 26.273438 24.945312 C 25.769531 24.601562 25.429688 24.101562 25.273438 23.554688 L 26.03125 22.945312 C 26.507812 22.554688 27.167969 22.53125 27.675781 22.867188 L 31.882812 25.707031 C 32.574219 26.175781 32.707031 27.148438 32.167969 27.792969 Z M 32.167969 27.792969 "/>
<path style=" stroke:none;fill-rule:nonzero;fill:rgb(100%,100%,100%);fill-opacity:1;" d="M 17.074219 13.96875 L 16.460938 14.726562 C 15.914062 14.574219 15.417969 14.230469 15.074219 13.726562 L 12.238281 9.519531 C 11.960938 9.113281 11.820312 8.648438 11.804688 8.195312 C 11.945312 8.070312 12.085938 7.945312 12.226562 7.832031 C 12.867188 7.292969 13.84375 7.425781 14.3125 8.117188 L 17.148438 12.324219 C 17.488281 12.832031 17.457031 13.492188 17.074219 13.96875 Z M 17.074219 13.96875 "/>
<path style=" stroke:none;fill-rule:nonzero;fill:rgb(0%,0%,0%);fill-opacity:1;" d="M 28.027344 30.433594 C 26.828125 30.433594 25.632812 30.074219 24.375 29.355469 C 24.335938 29.332031 24.300781 29.308594 24.269531 29.277344 C 18.449219 26.441406 13.511719 21.492188 10.6875 15.667969 C 10.679688 15.65625 10.671875 15.640625 10.664062 15.625 C 9.4375 13.492188 9.261719 11.535156 10.101562 9.460938 C 10.375 8.789062 10.953125 8.078125 11.824219 7.351562 C 12.269531 6.980469 12.851562 6.8125 13.425781 6.894531 C 13.996094 6.976562 14.507812 7.296875 14.828125 7.769531 L 17.664062 11.976562 C 18.160156 12.710938 18.121094 13.667969 17.5625 14.359375 L 16.296875 15.925781 C 18.261719 19.007812 21.003906 21.746094 24.085938 23.710938 L 25.640625 22.453125 C 26.328125 21.898438 27.285156 21.855469 28.023438 22.351562 L 32.230469 25.1875 C 32.703125 25.511719 33.023438 26.019531 33.101562 26.589844 C 33.183594 27.164062 33.019531 27.75 32.648438 28.195312 C 31.921875 29.0625 31.214844 29.640625 30.539062 29.914062 C 29.6875 30.261719 28.859375 30.433594 28.027344 30.433594 Z M 25.113281 28.335938 C 26.882812 29.320312 28.371094 29.445312 30.070312 28.757812 C 30.546875 28.566406 31.105469 28.09375 31.6875 27.394531 C 31.835938 27.21875 31.898438 26.992188 31.867188 26.765625 C 31.835938 26.542969 31.71875 26.351562 31.53125 26.226562 L 27.324219 23.386719 C 27.046875 23.199219 26.6875 23.21875 26.425781 23.425781 L 24.527344 24.964844 C 24.320312 25.132812 24.03125 25.148438 23.808594 25.011719 C 20.285156 22.855469 17.15625 19.726562 14.996094 16.203125 C 14.859375 15.980469 14.875 15.691406 15.042969 15.484375 L 16.589844 13.574219 C 16.800781 13.3125 16.816406 12.953125 16.628906 12.675781 L 13.792969 8.46875 C 13.667969 8.285156 13.476562 8.164062 13.253906 8.132812 C 13.023438 8.101562 12.800781 8.164062 12.625 8.3125 C 11.921875 8.894531 11.453125 9.453125 11.261719 9.929688 C 10.566406 11.644531 10.699219 13.144531 11.710938 14.941406 C 11.738281 14.972656 11.761719 15.011719 11.777344 15.046875 C 14.496094 20.699219 19.292969 25.5 24.945312 28.21875 C 25.007812 28.246094 25.066406 28.289062 25.113281 28.335938 Z M 25.113281 28.335938 "/>
</g>
</svg>
