<?xml version="1.0" standalone="no"?>
<!DOCTYPE svg PUBLIC "-//W3C//DTD SVG 20010904//EN"
 "http://www.w3.org/TR/2001/REC-SVG-20010904/DTD/svg10.dtd">
<svg version="1.0" xmlns="http://www.w3.org/2000/svg"
 width="512.000000pt" height="512.000000pt" viewBox="0 0 512.000000 512.000000"
 preserveAspectRatio="xMidYMid meet">

<g transform="translate(0.000000,512.000000) scale(0.100000,-0.100000)"
fill="#000000" stroke="none">
<path d="M3655 4744 c-139 -34 -285 -135 -364 -253 -41 -62 -85 -158 -96 -208
l-7 -33 -71 -1 c-40 0 -97 -8 -127 -18 l-55 -17 -60 54 c-118 109 -229 138
-485 129 -171 -6 -270 -26 -377 -77 -171 -79 -308 -218 -387 -392 -58 -128
-68 -180 -73 -422 l-5 -219 -33 -43 c-51 -66 -70 -127 -70 -219 0 -65 5 -90
26 -136 51 -109 140 -178 260 -203 l62 -12 18 -75 c30 -119 98 -245 180 -333
l71 -76 -259 0 c-367 0 -353 13 -353 -328 l0 -220 -87 -21 c-117 -29 -179 -67
-236 -142 -51 -67 -58 -106 -78 -419 -10 -162 -18 -314 -19 -337 l0 -43 -187
0 c-161 0 -194 -3 -228 -19 -90 -41 -134 -116 -135 -228 l0 -73 -99 0 c-86 0
-102 -3 -132 -23 -48 -32 -59 -60 -59 -157 0 -97 11 -125 59 -157 l34 -23
2274 0 c2513 0 2312 -5 2353 63 16 25 20 50 20 117 0 97 -11 125 -59 157 -34
23 -36 23 -397 23 l-364 0 0 28 c-1 15 -14 238 -29 497 -31 507 -33 522 -94
601 -49 65 -122 108 -227 134 l-90 22 0 219 c0 246 -6 275 -62 309 -31 19 -50
20 -291 20 l-259 0 71 76 c82 88 150 214 180 333 l18 75 62 12 c120 25 209 94
258 201 49 106 41 223 -23 329 l-34 56 0 137 0 137 68 -17 c203 -53 433 11
587 166 194 194 240 475 117 725 -74 153 -242 284 -412 324 -80 19 -215 19
-295 0z m274 -99 c137 -33 273 -137 338 -261 213 -401 -149 -866 -587 -755
-224 56 -377 237 -397 468 -29 351 299 629 646 548z m-1174 -1071 c105 -76
254 -129 400 -143 l70 -6 3 -355 c3 -406 -2 -449 -69 -587 -48 -97 -137 -199
-223 -255 l-59 -38 -317 0 -317 0 -59 38 c-115 75 -214 206 -265 352 -22 62
-23 81 -27 419 -3 330 -2 353 14 347 37 -14 193 -18 279 -7 107 14 233 56 312
102 31 19 89 64 127 101 39 37 73 68 76 68 3 0 28 -16 55 -36z m-965 -544 c0
-283 7 -265 -85 -233 -139 47 -203 214 -134 349 37 72 125 132 197 134 l22 0
0 -250z m1667 214 c72 -42 123 -130 123 -213 0 -100 -73 -203 -165 -234 -92
-32 -85 -51 -85 234 l0 252 43 -7 c23 -4 61 -18 84 -32z m107 -1170 c3 -9 6
-339 6 -734 0 -701 0 -720 -19 -730 -27 -14 -1955 -14 -1982 0 -19 10 -19 29
-19 730 0 395 3 725 6 734 6 14 103 16 1004 16 901 0 998 -2 1004 -16z m-2114
-934 l0 -400 -154 0 c-85 0 -157 3 -159 8 -2 4 4 138 13 297 19 310 25 342 78
398 35 37 72 56 152 78 36 9 66 18 68 18 1 1 2 -179 2 -399z m2385 347 c17 -8
42 -28 57 -44 53 -56 59 -88 78 -398 9 -159 15 -293 13 -297 -2 -5 -74 -8
-159 -8 l-154 0 0 399 0 399 68 -17 c37 -10 81 -25 97 -34z m-2385 -865 c0
-11 -13 -23 -35 -31 -63 -22 -85 -117 -46 -194 l19 -37 -84 0 -84 0 0 73 c0
80 -21 139 -64 182 l-25 25 159 0 c147 0 160 -1 160 -18z m2544 -4 c3 -13 7
-76 11 -140 l6 -118 -140 0 -139 0 19 37 c39 77 17 172 -46 194 -22 8 -35 20
-35 31 0 17 13 18 160 18 158 0 160 0 164 -22z m-2912 -75 c30 -30 33 -39 36
-108 l4 -75 -272 0 -272 0 4 74 c3 63 7 79 28 101 14 15 34 31 45 36 11 4 104
7 207 6 l188 -2 32 -32z m2588 -65 c0 -36 -38 -88 -75 -104 -52 -21 -2018 -21
-2070 0 -37 16 -75 68 -75 104 l0 22 1110 0 1110 0 0 -22z m1148 -230 c16 -16
16 -120 0 -136 -17 -17 -4499 -17 -4516 0 -16 16 -16 120 0 136 17 17 4499 17
4516 0z"/>
<path d="M3935 4364 c-16 -8 -64 -49 -105 -90 l-76 -74 -38 39 c-117 120 -301
27 -271 -136 5 -31 28 -59 123 -155 96 -95 125 -118 156 -123 77 -15 109 5
268 163 157 158 178 192 164 266 -18 96 -136 154 -221 110z m111 -109 c8 -13
13 -32 10 -43 -10 -29 -280 -292 -301 -292 -27 0 -215 191 -215 217 0 30 26
53 59 53 19 0 42 -15 81 -55 30 -30 63 -55 74 -55 12 0 62 41 121 100 112 109
140 122 171 75z"/>
<path d="M2233 3078 c-67 -18 -85 -97 -34 -149 37 -37 79 -38 120 -3 24 20 31
34 31 63 0 67 -52 107 -117 89z"/>
<path d="M2853 3078 c-67 -18 -85 -97 -34 -149 37 -37 79 -38 120 -3 24 20 31
34 31 63 0 67 -52 107 -117 89z"/>
<path d="M2344 2635 c-15 -23 -15 -27 0 -49 42 -65 133 -106 236 -106 103 0
194 41 236 106 15 22 15 26 0 49 -20 31 -56 33 -82 4 -30 -35 -94 -59 -154
-59 -60 0 -124 24 -154 59 -26 29 -62 27 -82 -4z"/>
<path d="M2387 1382 c-20 -22 -22 -53 -5 -70 8 -8 62 -12 178 -12 175 0 190 4
190 45 0 48 -25 55 -192 55 -137 0 -157 -2 -171 -18z"/>
</g>
</svg>
